<?xml version="1.0" encoding="utf-8"?>
<!-- Generator: Adobe Illustrator 16.0.4, SVG Export Plug-In . SVG Version: 6.00 Build 0)  -->
<!DOCTYPE svg PUBLIC "-//W3C//DTD SVG 1.1//EN" "http://www.w3.org/Graphics/SVG/1.1/DTD/svg11.dtd">
<svg version="1.1" id="Layer_1" xmlns="http://www.w3.org/2000/svg" xmlns:xlink="http://www.w3.org/1999/xlink" x="0px" y="0px"
	 width="217.334px" height="217.334px" viewBox="0 0 217.334 217.334" enable-background="new 0 0 217.334 217.334"
	 xml:space="preserve">
<circle fill="#465D6A" cx="108.667" cy="108.667" r="108.667"/>
<g id="Legal">
	<g display="none">
		<g display="inline">
			<g>
				<g>
					<path fill="#FFFFFF" d="M125.633,42.11l48.759,48.825l-34.056,34.009l-18.293-18.318c-20.36,20.707-40.868,44.908-62.59,66.599
						c-4.498,4.492-11.785,4.488-16.278-0.012c-4.492-4.496-4.487-11.785,0.011-16.277c21.841-21.811,43.32-39.494,66.686-62.498
						L91.578,76.12L125.633,42.11L125.633,42.11z"/>
					<path fill="#FF9600" d="M186.1,95.527c2.792,2.794,2.787,7.367-0.007,10.157l-31.023,30.979
						c-2.794,2.791-7.367,2.789-10.157-0.006c-2.791-2.795-2.788-7.367,0.006-10.158l31.022-30.98
						C178.736,92.728,183.308,92.73,186.1,95.527L186.1,95.527z M121.057,30.395c-2.791-2.795-7.363-2.798-10.158-0.007
						l-31.022,30.98c-2.794,2.791-2.798,7.362-0.007,10.158c2.792,2.795,7.363,2.798,10.158,0.008l31.023-30.981
						C123.846,37.763,123.849,33.19,121.057,30.395L121.057,30.395z"/>
				</g>
			</g>
		</g>
	</g>
	
		<image overflow="visible" width="238" height="36" xlink:href="Screen Shot 2014-12-31 at 2.10.39 PM.png"  transform="matrix(0.5 0 0 0.5 -163.833 49.167)">
	</image>
</g>
<g id="Layer_3">
	<g display="none">
		<g id="opened_x5F_email" display="inline">
			<path fill="#FFFFFF" d="M83.945,132.007L57.81,156.065c-1.476,1.501-1.476,3.94,0,5.442c0.738,0.751,1.705,1.128,2.672,1.128
				c0.966,0,1.934-0.377,2.671-1.128l26.136-24.058c1.476-1.503,1.476-3.94,0-5.443C87.813,130.504,85.422,130.504,83.945,132.007z"
				/>
			<path fill="#FFFFFF" d="M153.224,161.508c0.738,0.751,1.705,1.128,2.672,1.128s1.934-0.377,2.67-1.128
				c1.477-1.502,1.477-3.941,0-5.442l-26.135-24.059c-1.477-1.503-3.867-1.503-5.344,0s-1.477,3.94,0,5.443L153.224,161.508z"/>
			<path fill="#FFFFFF" d="M175.905,84.924c-0.293-0.676-0.721-1.303-1.309-1.813l-64.509-55.944L44.959,80.752
				c-0.821,0.503-1.564,1.114-2.214,1.82l-0.553,0.456c-1.202,0.989-1.812,2.433-1.827,3.893c-0.216,0.826-0.343,1.689-0.343,2.58
				v76.984c0,5.646,4.619,10.265,10.265,10.265h116.759c5.646,0,10.266-4.619,10.266-10.265V89.5
				C177.312,87.764,176.778,86.238,175.905,84.924z M141.384,62.556c2.832,0,5.133,2.302,5.133,5.132v4.383v29.869l-37.844,28.093
				l-37.856-28.268V72.508v-4.819c0-2.831,2.302-5.132,5.132-5.132h6.963h52.633H141.384z M151.649,76.522l13.424,11.643
				l-13.424,9.965V76.522z M129.626,57.424H89.15l20.771-17.088L129.626,57.424z M65.685,76.73v21.201l-13.51-10.086L65.685,76.73z
				 M167.046,166.484H50.287V96.306l58.373,43.759l58.386-43.522V166.484z"/>
			<path fill="#FF9600" d="M129.837,83.085H88.779c-1.417,0-2.566-1.15-2.566-2.566c0-1.417,1.149-2.566,2.566-2.566h41.058
				c1.418,0,2.566,1.15,2.566,2.566C132.403,81.936,131.255,83.085,129.837,83.085z"/>
			<path fill="#FF9600" d="M129.837,93.35H88.779c-1.417,0-2.566-1.149-2.566-2.566c0-1.417,1.149-2.566,2.566-2.566h41.058
				c1.418,0,2.566,1.149,2.566,2.566C132.403,92.201,131.255,93.35,129.837,93.35z"/>
			<path fill="#FF9600" d="M129.837,103.614H88.779c-1.417,0-2.566-1.15-2.566-2.566s1.149-2.566,2.566-2.566h41.058
				c1.418,0,2.566,1.15,2.566,2.566S131.255,103.614,129.837,103.614z"/>
		</g>
	</g>
</g>
<g id="Layer_4">
	<g>
		<g>
			<path fill="#FF9600" d="M107.703,44.314c2.237,2.982,5.218,4.474,8.201,5.965c-1.49,3.728-2.236,6.709-2.982,9.692
				c-0.745,0-2.236,0-2.981,0h-0.746c-2.236,0-5.219-0.745-7.455-0.745c-0.746-1.491-2.237-3.728-2.982-5.219
				c0-0.745-0.746-1.491-0.746-1.491C100.992,51.024,104.72,48.042,107.703,44.314 M107.703,27.167L107.703,27.167
				c-3.728,0-7.456,0.746-11.183,6.71c-2.983,5.219-7.456,5.219-14.166,5.219c-5.964,0-7.456,4.473-4.473,8.947
				c1.491,2.237,11.184,18.639,13.42,22.367c2.236,2.982,11.184,5.219,17.893,5.219c0.746,0,0.746,0,1.491,0
				c6.71,0,17.148-2.982,16.402-8.201c-0.745-9.692,8.947-22.367,10.438-23.858c2.236-2.982,1.492-9.692-4.473-9.692
				c-1.492,0-2.982,0-4.473,0.746c-1.492,0.745-3.729,1.491-5.965,1.491c-1.491,0-2.982-0.746-3.729-2.237
				C114.413,27.913,110.685,27.167,107.703,27.167L107.703,27.167z"/>
		</g>
		<g>
			<path fill="#FF9600" d="M91.3,70.409c2.236,3.728,12.674,5.219,19.384,5.219s17.148-2.982,16.402-8.201
				c-0.745-9.692,8.947-22.367,10.438-23.858c-2.981,1.491-5.219,3.728-8.201,2.983c-1.49,1.491-5.219,10.437-12.674,10.437
				c-5.219,0-5.965-7.455-9.692-7.455c-3.728,0-4.473,5.219-7.456,5.964c-6.71,1.491-11.929-5.219-15.656-9.692
				c-1.492,0-4.474-2.237-5.965,2.982C79.372,50.279,89.064,66.682,91.3,70.409z"/>
		</g>
		<path fill="#FFFFFF" d="M125.596,77.865c-5.219,2.237-11.183,3.728-14.911,3.728h-1.491c-1.491,0-8.202,0-14.166-2.236
			c-32.059,9.692-55.917,42.498-55.917,65.609c0,27.587,33.55,31.313,74.556,31.313c41.005,0,74.556-3.727,74.556-31.313
			C188.223,120.362,161.383,85.32,125.596,77.865z M110.685,120.362c0.746,0.745,2.236,2.236,4.474,3.727
			c4.474,1.491,8.201,3.728,10.438,5.965c2.237,2.236,3.728,5.964,3.728,10.438c0,3.728-1.49,7.455-3.728,9.692
			c-2.236,2.236-5.219,3.728-8.946,4.473v6.709h-5.219v-6.709c-3.728-0.745-7.456-2.236-9.692-4.473
			c-2.237-2.237-3.728-6.711-3.728-11.184l0,0h9.692c0,2.982,0.746,5.219,1.491,6.71s2.982,2.236,4.473,2.236
			s2.982-0.745,3.728-1.492c0.746-1.49,1.491-2.981,1.491-4.472c0-2.237-0.745-3.729-1.491-4.475
			c-0.745-1.491-2.236-2.235-4.474-3.727c-4.473-1.492-8.201-3.729-10.437-5.966c-2.237-2.236-3.728-5.963-3.728-9.691
			s1.491-7.456,3.728-9.692c2.236-2.237,5.219-3.728,8.947-4.473v-7.456h5.219v7.456c3.728,0.745,6.71,2.236,8.946,5.219
			c2.237,2.982,2.983,5.964,2.983,10.438h-9.693c0-2.237-0.745-4.474-1.491-5.965c-0.745-1.491-2.236-2.236-3.728-2.236
			s-2.982,0.745-3.728,1.491c-0.746,1.49-0.746,2.982-0.746,4.473C109.939,118.125,109.939,119.616,110.685,120.362z"/>
	</g>
</g>
</svg>
